<?xml version="1.0" encoding="UTF-8" standalone="no"?>
<!-- Created with Inkscape (http://www.inkscape.org/) -->

<svg
   xmlns:dc="http://purl.org/dc/elements/1.1/"
   xmlns:cc="http://creativecommons.org/ns#"
   xmlns:rdf="http://www.w3.org/1999/02/22-rdf-syntax-ns#"
   xmlns:svg="http://www.w3.org/2000/svg"
   xmlns="http://www.w3.org/2000/svg"
   xmlns:sodipodi="http://sodipodi.sourceforge.net/DTD/sodipodi-0.dtd"
   xmlns:inkscape="http://www.inkscape.org/namespaces/inkscape"
   width="600"
   height="600"
   viewBox="0 0 158.75 158.75"
   version="1.1"
   id="svg4639"
   inkscape:version="0.92.5 (2060ec1f9f, 2020-04-08)"
   sodipodi:docname="itch-button.svg">
  <defs
     id="defs4633">
	
	
</defs>
  <sodipodi:namedview
     id="base"
     pagecolor="#ffffff"
     bordercolor="#666666"
     borderopacity="1.0"
     inkscape:pageopacity="0.0"
     inkscape:pageshadow="2"
     inkscape:zoom="0.7"
     inkscape:cx="0.11059753"
     inkscape:cy="429.28555"
     inkscape:document-units="mm"
     inkscape:current-layer="layer1"
     showgrid="false"
     showguides="false"
     units="px"
     inkscape:window-width="1556"
     inkscape:window-height="875"
     inkscape:window-x="44"
     inkscape:window-y="0"
     inkscape:window-maximized="1" />
  <metadata
     id="metadata4636">
    <rdf:RDF>
      <cc:Work
         rdf:about="">
        <dc:format>image/svg+xml</dc:format>
        <dc:type
           rdf:resource="http://purl.org/dc/dcmitype/StillImage" />
        <dc:title></dc:title>
      </cc:Work>
    </rdf:RDF>
  </metadata>
  <g
     inkscape:label="Calque 1"
     inkscape:groupmode="layer"
     id="layer1"
     transform="translate(0,-138.24998)">
    <circle
       style="color:#000000;display:inline;overflow:visible;visibility:visible;opacity:1;vector-effect:none;fill:#000000;fill-opacity:1;fill-rule:nonzero;stroke:none;stroke-width:0.52916664;stroke-linecap:square;stroke-linejoin:miter;stroke-miterlimit:4;stroke-dasharray:none;stroke-dashoffset:0;stroke-opacity:1;marker:none;marker-start:none;marker-mid:none;marker-end:none;enable-background:accumulate"
       id="path5313"
       cx="79.375"
       cy="217.62498"
       r="79.375" />
    <path
       id="path5420"
       d="m 35.452714,164.83744 c -5.183252,3.07761 -15.39527,14.80931 -15.492128,17.88593 v 5.09269 c 0,6.45546 6.034133,12.12929 11.512796,12.12929 6.578464,0 12.059548,-5.45203 12.060032,-11.92298 0,6.47095 5.293183,11.92298 11.872131,11.92298 6.579433,0 11.702633,-5.45203 11.702633,-11.92298 0,6.47095 5.628303,11.92298 12.207252,11.92298 h 0.119139 c 6.57943,0 12.207736,-5.45203 12.207736,-11.92298 0,6.47095 5.123683,11.92298 11.702145,11.92298 6.57895,0 11.87213,-5.45203 11.87213,-11.92298 0,6.47095 5.48205,11.92298 12.06004,11.92298 5.47865,0 11.51279,-5.67287 11.51279,-12.12929 v -5.09269 c -0.0968,-3.07712 -10.30887,-14.80929 -15.49116,-17.88593 -16.11007,-0.56563 -27.278536,-0.66346 -43.923731,-0.66104 -16.644712,0.001 -39.337117,0.26151 -43.922767,0.66104 z m 31.572168,32.06759 a 13.571955,13.571955 0 0 1 -2.314859,2.98074 c -2.48339,2.42819 -5.887396,3.93334 -9.640084,3.93334 a 13.793271,13.793271 0 0 1 -9.660423,-3.93528 c -0.899794,-0.88138 -1.583596,-1.82378 -2.20977,-2.92117 l -0.0029,0.002 c -0.62569,1.09933 -1.497394,2.04125 -2.399125,2.9236 a 13.801988,13.801988 0 0 1 -9.660421,3.93236 c -0.452319,0 -0.92304,-0.12492 -1.303685,-0.2557 -0.528832,5.50724 -0.752085,10.77039 -0.831025,14.60784 l -9.67e-4,0.0218 c -0.0096,1.94875 -0.01937,3.55123 -0.02905,5.77746 0.101705,11.55493 -1.144353,37.45133 5.094628,43.8143 9.668171,2.25432 27.458693,3.28099 45.30684,3.28729 h 0.0029 c 17.847661,-0.007 35.638179,-1.03297 45.306349,-3.28729 6.23897,-6.36345 4.99293,-32.25985 5.09463,-43.81478 -0.0103,-2.22575 -0.0194,-3.82823 -0.029,-5.77747 l -0.001,-0.0218 c -0.0784,-3.83839 -0.30172,-9.10106 -0.83054,-14.6083 -0.38066,0.13076 -0.85088,0.2557 -1.30369,0.2557 a 13.801988,13.801988 0 0 1 -9.66042,-3.93236 c -0.90173,-0.88236 -1.77344,-1.82381 -2.39961,-2.9236 l -0.003,-0.002 c -0.62666,1.09738 -1.30998,2.04028 -2.20977,2.92118 a 13.792302,13.792302 0 0 1 -9.65993,3.93478 c -3.752207,0 -7.156696,-1.50611 -9.640085,-3.93382 a 13.571955,13.571955 0 0 1 -2.314859,-2.98074 13.555005,13.555005 0 0 1 -2.293552,2.98074 13.797145,13.797145 0 0 1 -9.661389,3.9343 c -0.130756,0 -0.261512,-0.005 -0.392268,-0.0103 h -0.0034 c -0.130756,0.003 -0.261512,0.0103 -0.39372,0.0103 a 13.797145,13.797145 0 0 1 -9.661392,-3.9338 13.555974,13.555974 0 0 1 -2.293549,-2.98075 z m -9.920966,12.8286 -9.69e-4,0.005 h 0.0072 c 3.928965,0.009 7.419173,0 11.743796,4.7198 3.403519,-0.35692 6.960075,-0.53514 10.519535,-0.5298 h 0.0029 c 3.559459,-0.005 7.116013,0.17288 10.520019,0.5298 4.324624,-4.72028 7.81483,-4.71206 11.743793,-4.7198 h 0.007 l -9.7e-4,-0.005 c 1.85625,0 9.28172,0 14.45576,14.53178 l 5.5576,19.93541 c 4.11833,14.8306 -1.31869,15.19332 -8.10055,15.20639 -10.05753,-0.37435 -15.626267,-7.67826 -15.626267,-14.98121 -5.567285,0.91239 -12.061967,1.36858 -18.556649,1.36906 h -0.0029 c -6.495168,0 -12.989848,-0.45667 -18.556651,-1.36906 0,7.30295 -5.569223,14.60686 -15.626271,14.98121 -6.781861,-0.0137 -12.218392,-0.37531 -8.100072,-15.20639 l 5.559053,-19.93491 c 5.17405,-14.5318 12.599521,-14.5318 14.455766,-14.5318 z m 22.269627,11.42028 v 0.003 c -0.0096,0.0103 -10.587818,9.72433 -12.489586,13.17967 L 73.8111,234.0591 v 6.04091 c 0,0.28282 2.779769,0.16765 5.562443,0.0388 h 0.0029 c 2.781706,0.12887 5.561959,0.24408 5.561959,-0.0388 v -6.04091 l 6.927145,0.27748 C 89.96331,230.88168 79.375976,221.15735 79.375976,221.15735 v -0.003 l -0.0015,9.8e-4 z"
       inkscape:connector-curvature="0"
       style="color:#000000;fill:#ffffff;stroke-width:0.28222144" />
  </g>
</svg>
