<?xml version="1.0" encoding="UTF-8" standalone="no"?>
<!DOCTYPE svg PUBLIC "-//W3C//DTD SVG 1.1//EN"
 "http://www.w3.org/Graphics/SVG/1.1/DTD/svg11.dtd">
<!-- Generated by graphviz version 2.43.0 (0)
 -->
<!-- Title: auto Pages: 1 -->
<svg width="348pt" height="476pt"
 viewBox="0.00 0.00 348.14 476.00" xmlns="http://www.w3.org/2000/svg" xmlns:xlink="http://www.w3.org/1999/xlink">
<g id="graph0" class="graph" transform="scale(1 1) rotate(0) translate(4 472)">
<title>auto</title>
<!-- 57a5cfe3f7697b6808476eeaf6cf546c91b15094 -->
<g id="node1" class="node">
<title>57a5cfe3f7697b6808476eeaf6cf546c91b15094</title>
<ellipse fill="#85d5fa" stroke="black" cx="164.79" cy="-18" rx="47.39" ry="18"/>
<text text-anchor="middle" x="164.79" y="-14.3" font-family="Times,serif" font-size="14.00">57a5cfe</text>
</g>
<!-- 77d48fe3e95fd9eca0ead976276810ecdfb98055 -->
<g id="node2" class="node">
<title>77d48fe3e95fd9eca0ead976276810ecdfb98055</title>
<ellipse fill="#85d5fa" stroke="black" cx="164.79" cy="-90" rx="48.99" ry="18"/>
<text text-anchor="middle" x="164.79" y="-86.3" font-family="Times,serif" font-size="14.00">77d48fe</text>
</g>
<!-- 77d48fe3e95fd9eca0ead976276810ecdfb98055&#45;&gt;57a5cfe3f7697b6808476eeaf6cf546c91b15094 -->
<g id="edge1" class="edge">
<title>77d48fe3e95fd9eca0ead976276810ecdfb98055&#45;&gt;57a5cfe3f7697b6808476eeaf6cf546c91b15094</title>
<path fill="none" stroke="black" d="M164.79,-71.7C164.79,-63.98 164.79,-54.71 164.79,-46.11"/>
<polygon fill="black" stroke="black" points="168.29,-46.1 164.79,-36.1 161.29,-46.1 168.29,-46.1"/>
</g>
<!-- 84202fa2c7a57258b76966b35d2ef46e5b9ee7c3 -->
<g id="node3" class="node">
<title>84202fa2c7a57258b76966b35d2ef46e5b9ee7c3</title>
<ellipse fill="#85d5fa" stroke="black" cx="189.79" cy="-162" rx="48.99" ry="18"/>
<text text-anchor="middle" x="189.79" y="-158.3" font-family="Times,serif" font-size="14.00">84202fa</text>
</g>
<!-- 84202fa2c7a57258b76966b35d2ef46e5b9ee7c3&#45;&gt;77d48fe3e95fd9eca0ead976276810ecdfb98055 -->
<g id="edge2" class="edge">
<title>84202fa2c7a57258b76966b35d2ef46e5b9ee7c3&#45;&gt;77d48fe3e95fd9eca0ead976276810ecdfb98055</title>
<path fill="none" stroke="black" d="M183.74,-144.05C180.93,-136.18 177.51,-126.62 174.36,-117.79"/>
<polygon fill="black" stroke="black" points="177.62,-116.52 170.96,-108.28 171.03,-118.87 177.62,-116.52"/>
</g>
<!-- 88bc345ae576a0f706787297716304f2761e2310 -->
<g id="node4" class="node">
<title>88bc345ae576a0f706787297716304f2761e2310</title>
<ellipse fill="#85d5fa" stroke="black" cx="153.79" cy="-234" rx="50.89" ry="18"/>
<text text-anchor="middle" x="153.79" y="-230.3" font-family="Times,serif" font-size="14.00">88bc345</text>
</g>
<!-- 88bc345ae576a0f706787297716304f2761e2310&#45;&gt;77d48fe3e95fd9eca0ead976276810ecdfb98055 -->
<g id="edge3" class="edge">
<title>88bc345ae576a0f706787297716304f2761e2310&#45;&gt;77d48fe3e95fd9eca0ead976276810ecdfb98055</title>
<path fill="none" stroke="black" d="M144.37,-216.17C135.53,-198.21 124.66,-168.94 131.79,-144 134.63,-134.1 139.9,-124.25 145.41,-115.77"/>
<polygon fill="black" stroke="black" points="148.33,-117.71 151.15,-107.5 142.58,-113.72 148.33,-117.71"/>
</g>
<!-- 88bc345ae576a0f706787297716304f2761e2310&#45;&gt;84202fa2c7a57258b76966b35d2ef46e5b9ee7c3 -->
<g id="edge4" class="edge">
<title>88bc345ae576a0f706787297716304f2761e2310&#45;&gt;84202fa2c7a57258b76966b35d2ef46e5b9ee7c3</title>
<path fill="none" stroke="black" d="M162.51,-216.05C166.71,-207.89 171.84,-197.91 176.51,-188.82"/>
<polygon fill="black" stroke="black" points="179.7,-190.28 181.16,-179.79 173.47,-187.08 179.7,-190.28"/>
</g>
<!-- a660c2764130c24400d76524ced31c28d2b09506 -->
<g id="node5" class="node">
<title>a660c2764130c24400d76524ced31c28d2b09506</title>
<ellipse fill="#85d5fa" stroke="black" cx="113.79" cy="-306" rx="50.09" ry="18"/>
<text text-anchor="middle" x="113.79" y="-302.3" font-family="Times,serif" font-size="14.00">a660c27</text>
</g>
<!-- a660c2764130c24400d76524ced31c28d2b09506&#45;&gt;57a5cfe3f7697b6808476eeaf6cf546c91b15094 -->
<g id="edge5" class="edge">
<title>a660c2764130c24400d76524ced31c28d2b09506&#45;&gt;57a5cfe3f7697b6808476eeaf6cf546c91b15094</title>
<path fill="none" stroke="black" d="M105.49,-287.79C101.05,-277.63 96.05,-264.38 93.79,-252 84.47,-200.89 88.12,-109.66 106.79,-72 112.91,-59.66 123.23,-48.8 133.48,-40.19"/>
<polygon fill="black" stroke="black" points="135.93,-42.71 141.61,-33.77 131.59,-37.22 135.93,-42.71"/>
</g>
<!-- a660c2764130c24400d76524ced31c28d2b09506&#45;&gt;88bc345ae576a0f706787297716304f2761e2310 -->
<g id="edge6" class="edge">
<title>a660c2764130c24400d76524ced31c28d2b09506&#45;&gt;88bc345ae576a0f706787297716304f2761e2310</title>
<path fill="none" stroke="black" d="M123.48,-288.05C128.19,-279.8 133.97,-269.7 139.2,-260.54"/>
<polygon fill="black" stroke="black" points="142.28,-262.21 144.2,-251.79 136.2,-258.73 142.28,-262.21"/>
</g>
<!-- e493dd98ec2258cffa80f9845c81124a5e07ff66 -->
<g id="node6" class="node">
<title>e493dd98ec2258cffa80f9845c81124a5e07ff66</title>
<ellipse fill="#85d5fa" stroke="black" cx="288.79" cy="-90" rx="51.19" ry="18"/>
<text text-anchor="middle" x="288.79" y="-86.3" font-family="Times,serif" font-size="14.00">e493dd9</text>
</g>
<!-- e493dd98ec2258cffa80f9845c81124a5e07ff66&#45;&gt;57a5cfe3f7697b6808476eeaf6cf546c91b15094 -->
<g id="edge7" class="edge">
<title>e493dd98ec2258cffa80f9845c81124a5e07ff66&#45;&gt;57a5cfe3f7697b6808476eeaf6cf546c91b15094</title>
<path fill="none" stroke="black" d="M262.8,-74.33C244.32,-63.9 219.32,-49.78 199.19,-38.42"/>
<polygon fill="black" stroke="black" points="200.76,-35.28 190.33,-33.42 197.32,-41.38 200.76,-35.28"/>
</g>
<!-- efca7342cfbabac1ef806644f46c4e22663ecb2d -->
<g id="node7" class="node">
<title>efca7342cfbabac1ef806644f46c4e22663ecb2d</title>
<ellipse fill="#85d5fa" stroke="black" cx="59.79" cy="-378" rx="47.39" ry="18"/>
<text text-anchor="middle" x="59.79" y="-374.3" font-family="Times,serif" font-size="14.00">efca734</text>
</g>
<!-- efca7342cfbabac1ef806644f46c4e22663ecb2d&#45;&gt;a660c2764130c24400d76524ced31c28d2b09506 -->
<g id="edge8" class="edge">
<title>efca7342cfbabac1ef806644f46c4e22663ecb2d&#45;&gt;a660c2764130c24400d76524ced31c28d2b09506</title>
<path fill="none" stroke="black" d="M72.59,-360.41C79.25,-351.78 87.52,-341.06 94.9,-331.5"/>
<polygon fill="black" stroke="black" points="97.75,-333.53 101.09,-323.47 92.21,-329.25 97.75,-333.53"/>
</g>
<!-- duplicate1 -->
<g id="node8" class="node">
<title>duplicate1</title>
<ellipse fill="#9999ff" stroke="black" cx="59.79" cy="-450" rx="59.59" ry="18"/>
<text text-anchor="middle" x="59.79" y="-446.3" font-family="Times,serif" font-size="14.00">duplicate1</text>
</g>
<!-- duplicate1&#45;&gt;efca7342cfbabac1ef806644f46c4e22663ecb2d -->
<g id="edge9" class="edge">
<title>duplicate1&#45;&gt;efca7342cfbabac1ef806644f46c4e22663ecb2d</title>
<path fill="none" stroke="black" d="M59.79,-431.7C59.79,-423.98 59.79,-414.71 59.79,-406.11"/>
<polygon fill="black" stroke="black" points="63.29,-406.1 59.79,-396.1 56.29,-406.1 63.29,-406.1"/>
</g>
<!-- master -->
<g id="node9" class="node">
<title>master</title>
<ellipse fill="#9999ff" stroke="black" cx="168.79" cy="-378" rx="43.59" ry="18"/>
<text text-anchor="middle" x="168.79" y="-374.3" font-family="Times,serif" font-size="14.00">master</text>
</g>
<!-- master&#45;&gt;a660c2764130c24400d76524ced31c28d2b09506 -->
<g id="edge10" class="edge">
<title>master&#45;&gt;a660c2764130c24400d76524ced31c28d2b09506</title>
<path fill="none" stroke="black" d="M156.04,-360.76C149.26,-352.14 140.8,-341.36 133.22,-331.73"/>
<polygon fill="black" stroke="black" points="135.79,-329.33 126.86,-323.63 130.29,-333.66 135.79,-329.33"/>
</g>
<!-- topic2 -->
<g id="node10" class="node">
<title>topic2</title>
<ellipse fill="#9999ff" stroke="black" cx="295.79" cy="-162" rx="39.79" ry="18"/>
<text text-anchor="middle" x="295.79" y="-158.3" font-family="Times,serif" font-size="14.00">topic2</text>
</g>
<!-- topic2&#45;&gt;e493dd98ec2258cffa80f9845c81124a5e07ff66 -->
<g id="edge11" class="edge">
<title>topic2&#45;&gt;e493dd98ec2258cffa80f9845c81124a5e07ff66</title>
<path fill="none" stroke="black" d="M294.06,-143.7C293.29,-135.98 292.37,-126.71 291.51,-118.11"/>
<polygon fill="black" stroke="black" points="294.98,-117.71 290.51,-108.1 288.02,-118.4 294.98,-117.71"/>
</g>
</g>
</svg>
