<?xml version="1.0" encoding="UTF-8" standalone="no"?>
<!DOCTYPE svg PUBLIC "-//W3C//DTD SVG 1.1//EN"
 "http://www.w3.org/Graphics/SVG/1.1/DTD/svg11.dtd">
<!-- Generated by graphviz version 2.43.0 (0)
 -->
<!-- Title: auto Pages: 1 -->
<svg width="470pt" height="476pt"
 viewBox="0.00 0.00 470.44 476.00" xmlns="http://www.w3.org/2000/svg" xmlns:xlink="http://www.w3.org/1999/xlink">
<g id="graph0" class="graph" transform="scale(1 1) rotate(0) translate(4 472)">
<title>auto</title>
<!-- 57a5cfe3f7697b6808476eeaf6cf546c91b15094 -->
<g id="node1" class="node">
<title>57a5cfe3f7697b6808476eeaf6cf546c91b15094</title>
<ellipse fill="#85d5fa" stroke="black" cx="281.79" cy="-18" rx="47.39" ry="18"/>
<text text-anchor="middle" x="281.79" y="-14.3" font-family="Times,serif" font-size="14.00">57a5cfe</text>
</g>
<!-- 77d48fe3e95fd9eca0ead976276810ecdfb98055 -->
<g id="node2" class="node">
<title>77d48fe3e95fd9eca0ead976276810ecdfb98055</title>
<ellipse fill="#85d5fa" stroke="black" cx="281.79" cy="-90" rx="48.99" ry="18"/>
<text text-anchor="middle" x="281.79" y="-86.3" font-family="Times,serif" font-size="14.00">77d48fe</text>
</g>
<!-- 77d48fe3e95fd9eca0ead976276810ecdfb98055&#45;&gt;57a5cfe3f7697b6808476eeaf6cf546c91b15094 -->
<g id="edge1" class="edge">
<title>77d48fe3e95fd9eca0ead976276810ecdfb98055&#45;&gt;57a5cfe3f7697b6808476eeaf6cf546c91b15094</title>
<path fill="none" stroke="black" d="M281.79,-71.7C281.79,-63.98 281.79,-54.71 281.79,-46.11"/>
<polygon fill="black" stroke="black" points="285.29,-46.1 281.79,-36.1 278.29,-46.1 285.29,-46.1"/>
</g>
<!-- 84202fa2c7a57258b76966b35d2ef46e5b9ee7c3 -->
<g id="node3" class="node">
<title>84202fa2c7a57258b76966b35d2ef46e5b9ee7c3</title>
<ellipse fill="#85d5fa" stroke="black" cx="316.79" cy="-162" rx="48.99" ry="18"/>
<text text-anchor="middle" x="316.79" y="-158.3" font-family="Times,serif" font-size="14.00">84202fa</text>
</g>
<!-- 84202fa2c7a57258b76966b35d2ef46e5b9ee7c3&#45;&gt;77d48fe3e95fd9eca0ead976276810ecdfb98055 -->
<g id="edge2" class="edge">
<title>84202fa2c7a57258b76966b35d2ef46e5b9ee7c3&#45;&gt;77d48fe3e95fd9eca0ead976276810ecdfb98055</title>
<path fill="none" stroke="black" d="M308.32,-144.05C304.24,-135.89 299.25,-125.91 294.71,-116.82"/>
<polygon fill="black" stroke="black" points="297.79,-115.17 290.19,-107.79 291.53,-118.3 297.79,-115.17"/>
</g>
<!-- 88bc345ae576a0f706787297716304f2761e2310 -->
<g id="node4" class="node">
<title>88bc345ae576a0f706787297716304f2761e2310</title>
<ellipse fill="#85d5fa" stroke="black" cx="261.79" cy="-234" rx="50.89" ry="18"/>
<text text-anchor="middle" x="261.79" y="-230.3" font-family="Times,serif" font-size="14.00">88bc345</text>
</g>
<!-- 88bc345ae576a0f706787297716304f2761e2310&#45;&gt;77d48fe3e95fd9eca0ead976276810ecdfb98055 -->
<g id="edge3" class="edge">
<title>88bc345ae576a0f706787297716304f2761e2310&#45;&gt;77d48fe3e95fd9eca0ead976276810ecdfb98055</title>
<path fill="none" stroke="black" d="M258.82,-215.73C256.26,-197.65 253.7,-168.52 258.79,-144 260.67,-134.96 264.17,-125.58 267.88,-117.26"/>
<polygon fill="black" stroke="black" points="271.12,-118.61 272.25,-108.07 264.8,-115.6 271.12,-118.61"/>
</g>
<!-- 88bc345ae576a0f706787297716304f2761e2310&#45;&gt;84202fa2c7a57258b76966b35d2ef46e5b9ee7c3 -->
<g id="edge4" class="edge">
<title>88bc345ae576a0f706787297716304f2761e2310&#45;&gt;84202fa2c7a57258b76966b35d2ef46e5b9ee7c3</title>
<path fill="none" stroke="black" d="M274.83,-216.41C281.61,-207.78 290.03,-197.06 297.55,-187.5"/>
<polygon fill="black" stroke="black" points="300.43,-189.5 303.85,-179.47 294.92,-185.17 300.43,-189.5"/>
</g>
<!-- a660c2764130c24400d76524ced31c28d2b09506 -->
<g id="node5" class="node">
<title>a660c2764130c24400d76524ced31c28d2b09506</title>
<ellipse fill="#85d5fa" stroke="black" cx="182.79" cy="-306" rx="50.09" ry="18"/>
<text text-anchor="middle" x="182.79" y="-302.3" font-family="Times,serif" font-size="14.00">a660c27</text>
</g>
<!-- a660c2764130c24400d76524ced31c28d2b09506&#45;&gt;57a5cfe3f7697b6808476eeaf6cf546c91b15094 -->
<g id="edge5" class="edge">
<title>a660c2764130c24400d76524ced31c28d2b09506&#45;&gt;57a5cfe3f7697b6808476eeaf6cf546c91b15094</title>
<path fill="none" stroke="black" d="M182.17,-287.98C181.42,-247.75 183.85,-144.72 223.79,-72 230.43,-59.92 240.85,-49.13 251.05,-40.48"/>
<polygon fill="black" stroke="black" points="253.49,-43.01 259.1,-34.02 249.11,-37.55 253.49,-43.01"/>
</g>
<!-- a660c2764130c24400d76524ced31c28d2b09506&#45;&gt;88bc345ae576a0f706787297716304f2761e2310 -->
<g id="edge6" class="edge">
<title>a660c2764130c24400d76524ced31c28d2b09506&#45;&gt;88bc345ae576a0f706787297716304f2761e2310</title>
<path fill="none" stroke="black" d="M200.72,-289.12C211.15,-279.87 224.48,-268.07 236.02,-257.84"/>
<polygon fill="black" stroke="black" points="238.5,-260.32 243.67,-251.06 233.86,-255.08 238.5,-260.32"/>
</g>
<!-- e493dd98ec2258cffa80f9845c81124a5e07ff66 -->
<g id="node6" class="node">
<title>e493dd98ec2258cffa80f9845c81124a5e07ff66</title>
<ellipse fill="#85d5fa" stroke="black" cx="410.79" cy="-90" rx="51.19" ry="18"/>
<text text-anchor="middle" x="410.79" y="-86.3" font-family="Times,serif" font-size="14.00">e493dd9</text>
</g>
<!-- e493dd98ec2258cffa80f9845c81124a5e07ff66&#45;&gt;57a5cfe3f7697b6808476eeaf6cf546c91b15094 -->
<g id="edge7" class="edge">
<title>e493dd98ec2258cffa80f9845c81124a5e07ff66&#45;&gt;57a5cfe3f7697b6808476eeaf6cf546c91b15094</title>
<path fill="none" stroke="black" d="M384.07,-74.5C364.65,-63.96 338.19,-49.6 317.04,-38.13"/>
<polygon fill="black" stroke="black" points="318.51,-34.94 308.05,-33.25 315.17,-41.09 318.51,-34.94"/>
</g>
<!-- efca7342cfbabac1ef806644f46c4e22663ecb2d -->
<g id="node7" class="node">
<title>efca7342cfbabac1ef806644f46c4e22663ecb2d</title>
<ellipse fill="#85d5fa" stroke="black" cx="128.79" cy="-378" rx="47.39" ry="18"/>
<text text-anchor="middle" x="128.79" y="-374.3" font-family="Times,serif" font-size="14.00">efca734</text>
</g>
<!-- efca7342cfbabac1ef806644f46c4e22663ecb2d&#45;&gt;a660c2764130c24400d76524ced31c28d2b09506 -->
<g id="edge8" class="edge">
<title>efca7342cfbabac1ef806644f46c4e22663ecb2d&#45;&gt;a660c2764130c24400d76524ced31c28d2b09506</title>
<path fill="none" stroke="black" d="M141.59,-360.41C148.25,-351.78 156.52,-341.06 163.9,-331.5"/>
<polygon fill="black" stroke="black" points="166.75,-333.53 170.09,-323.47 161.21,-329.25 166.75,-333.53"/>
</g>
<!-- duplicate1 -->
<g id="node8" class="node">
<title>duplicate1</title>
<ellipse fill="#9999ff" stroke="black" cx="59.79" cy="-450" rx="59.59" ry="18"/>
<text text-anchor="middle" x="59.79" y="-446.3" font-family="Times,serif" font-size="14.00">duplicate1</text>
</g>
<!-- duplicate1&#45;&gt;efca7342cfbabac1ef806644f46c4e22663ecb2d -->
<g id="edge9" class="edge">
<title>duplicate1&#45;&gt;efca7342cfbabac1ef806644f46c4e22663ecb2d</title>
<path fill="none" stroke="black" d="M76.15,-432.41C85.04,-423.39 96.18,-412.09 105.92,-402.21"/>
<polygon fill="black" stroke="black" points="108.51,-404.57 113.03,-394.99 103.52,-399.65 108.51,-404.57"/>
</g>
<!-- duplicate2 -->
<g id="node9" class="node">
<title>duplicate2</title>
<ellipse fill="#9999ff" stroke="black" cx="197.79" cy="-450" rx="59.59" ry="18"/>
<text text-anchor="middle" x="197.79" y="-446.3" font-family="Times,serif" font-size="14.00">duplicate2</text>
</g>
<!-- duplicate2&#45;&gt;efca7342cfbabac1ef806644f46c4e22663ecb2d -->
<g id="edge10" class="edge">
<title>duplicate2&#45;&gt;efca7342cfbabac1ef806644f46c4e22663ecb2d</title>
<path fill="none" stroke="black" d="M181.44,-432.41C172.55,-423.39 161.41,-412.09 151.67,-402.21"/>
<polygon fill="black" stroke="black" points="154.07,-399.65 144.55,-394.99 149.08,-404.57 154.07,-399.65"/>
</g>
<!-- master -->
<g id="node10" class="node">
<title>master</title>
<ellipse fill="#9999ff" stroke="black" cx="237.79" cy="-378" rx="43.59" ry="18"/>
<text text-anchor="middle" x="237.79" y="-374.3" font-family="Times,serif" font-size="14.00">master</text>
</g>
<!-- master&#45;&gt;a660c2764130c24400d76524ced31c28d2b09506 -->
<g id="edge11" class="edge">
<title>master&#45;&gt;a660c2764130c24400d76524ced31c28d2b09506</title>
<path fill="none" stroke="black" d="M225.04,-360.76C218.26,-352.14 209.8,-341.36 202.22,-331.73"/>
<polygon fill="black" stroke="black" points="204.79,-329.33 195.86,-323.63 199.29,-333.66 204.79,-329.33"/>
</g>
<!-- topic1 -->
<g id="node11" class="node">
<title>topic1</title>
<ellipse fill="#9999ff" stroke="black" cx="290.79" cy="-306" rx="39.79" ry="18"/>
<text text-anchor="middle" x="290.79" y="-302.3" font-family="Times,serif" font-size="14.00">topic1</text>
</g>
<!-- topic1&#45;&gt;88bc345ae576a0f706787297716304f2761e2310 -->
<g id="edge12" class="edge">
<title>topic1&#45;&gt;88bc345ae576a0f706787297716304f2761e2310</title>
<path fill="none" stroke="black" d="M283.77,-288.05C280.51,-280.18 276.55,-270.62 272.9,-261.79"/>
<polygon fill="black" stroke="black" points="276.01,-260.17 268.95,-252.28 269.55,-262.85 276.01,-260.17"/>
</g>
<!-- topic1&#45;1 -->
<g id="node12" class="node">
<title>topic1&#45;1</title>
<ellipse fill="#9999ff" stroke="black" cx="378.79" cy="-234" rx="48.19" ry="18"/>
<text text-anchor="middle" x="378.79" y="-230.3" font-family="Times,serif" font-size="14.00">topic1&#45;1</text>
</g>
<!-- topic1&#45;1&#45;&gt;84202fa2c7a57258b76966b35d2ef46e5b9ee7c3 -->
<g id="edge13" class="edge">
<title>topic1&#45;1&#45;&gt;84202fa2c7a57258b76966b35d2ef46e5b9ee7c3</title>
<path fill="none" stroke="black" d="M364.41,-216.76C356.62,-207.97 346.85,-196.93 338.18,-187.14"/>
<polygon fill="black" stroke="black" points="340.78,-184.8 331.53,-179.63 335.54,-189.44 340.78,-184.8"/>
</g>
<!-- topic2 -->
<g id="node13" class="node">
<title>topic2</title>
<ellipse fill="#9999ff" stroke="black" cx="422.79" cy="-162" rx="39.79" ry="18"/>
<text text-anchor="middle" x="422.79" y="-158.3" font-family="Times,serif" font-size="14.00">topic2</text>
</g>
<!-- topic2&#45;&gt;e493dd98ec2258cffa80f9845c81124a5e07ff66 -->
<g id="edge14" class="edge">
<title>topic2&#45;&gt;e493dd98ec2258cffa80f9845c81124a5e07ff66</title>
<path fill="none" stroke="black" d="M419.83,-143.7C418.51,-135.98 416.92,-126.71 415.44,-118.11"/>
<polygon fill="black" stroke="black" points="418.87,-117.37 413.73,-108.1 411.97,-118.55 418.87,-117.37"/>
</g>
</g>
</svg>
